<?xml version="1.0" encoding="UTF-8"?>
<svg version="1.1" xmlns="http://www.w3.org/2000/svg" width="512" height="512">
<path d="M0 0 C4.10358886 0.00108185 8.20716265 -0.00384295 12.31074822 -0.00860542 C21.98695251 -0.01962152 31.66311793 -0.02017941 41.33932543 -0.01409125 C51.29566958 -0.00802342 61.25187342 -0.02045144 71.20819366 -0.04166132 C79.79981883 -0.05928543 88.39139931 -0.0652784 96.98304188 -0.06202358 C102.09652574 -0.06021589 107.20990886 -0.06279787 112.32337618 -0.07673812 C117.11875597 -0.08932929 121.91391545 -0.08736023 126.70929193 -0.07432723 C128.4632193 -0.0719668 130.21716228 -0.07467696 131.97107172 -0.08295035 C151.64220336 -0.16903255 151.64220336 -0.16903255 159.07858324 5.48908257 C163.69634114 11.60082098 164.65098506 17.63259781 164.60763597 25.05329156 C164.61793085 26.30619988 164.61793085 26.30619988 164.6284337 27.58441949 C164.64660869 30.32234885 164.64287764 33.05970008 164.63717699 35.79767632 C164.6417432 37.71524513 164.64705008 39.63281231 164.65306139 41.55037713 C164.6619742 45.56069377 164.65959017 49.57081107 164.64962816 53.58112359 C164.63813993 58.70325017 164.6583572 63.82468718 164.6875453 68.94672322 C164.70594995 72.9043131 164.70560636 76.86173901 164.69990778 80.81936097 C164.69975509 82.70708011 164.70575569 84.59481074 164.71819925 86.48248887 C164.82896255 106.03793388 164.82896255 106.03793388 160.20358324 112.30158257 C152.09804632 119.65311606 140.49224974 118.58848541 130.24801683 118.55695367 C128.75067502 118.559708 127.25333467 118.56339058 125.75599718 118.56792474 C122.54764245 118.57599754 119.33935724 118.57821519 116.13099337 118.57597756 C111.05394656 118.57313094 105.97703736 118.58754513 100.90002489 118.60495782 C86.46867964 118.65186098 72.03734516 118.67593194 57.60592699 118.68244195 C49.62328042 118.68619477 41.64079102 118.7042362 33.65821183 118.73753631 C28.61469446 118.75771823 23.57158327 118.76013724 18.52804208 118.74925613 C15.38863494 118.74664482 12.24946339 118.76067235 9.11011744 118.77933717 C7.65853215 118.78464835 6.20690318 118.78318069 4.75533533 118.77430177 C-5.75493852 118.61570855 -5.75493852 118.61570855 -14.79641676 123.30158257 C-18.45617518 128.30325242 -18.93087804 134.24242095 -18.79641676 140.30158257 C-17.7749511 146.22061126 -15.7614251 150.70987442 -10.79641676 154.30158257 C-2.3876034 157.91768561 7.11345307 158.56696314 16.10145044 159.71886277 C18.9696807 160.08649711 21.83642386 160.46428029 24.70301867 160.84444451 C29.77553186 161.51550249 34.84914146 162.17781032 39.92318773 162.83716607 C48.00206023 163.88700179 56.07994814 164.94400853 64.15634775 166.01270509 C66.94071497 166.37894382 69.72597482 166.7376588 72.51139879 167.09575677 C105.40079893 171.39015996 105.40079893 171.39015996 120.01608324 176.55158257 C120.87371264 176.84677789 121.73134203 177.1419732 122.61496019 177.44611382 C144.46815087 185.21036182 165.37969618 198.02494228 176.39108324 219.11408257 C180.52109358 227.84641827 183.23175611 236.49227887 184.89108324 245.98908257 C185.01056322 246.65826715 185.1300432 247.32745172 185.25314379 248.01691461 C188.01749682 265.30763258 187.3913772 283.06328205 187.38888597 300.51886773 C187.38880491 303.44666521 187.39572946 306.37430555 187.40939379 309.30207086 C187.58956084 348.54037573 186.29942837 383.96649806 158.01608324 413.98908257 C151.98804393 419.81618724 145.46325119 424.18466913 138.20358324 428.30158257 C137.28150072 428.82945367 137.28150072 428.82945367 136.34079027 429.36798882 C110.74456382 443.75549698 82.59859454 446.44182131 53.79464769 446.47858453 C51.62869202 446.48485819 49.4627374 446.49150578 47.29678392 446.49849725 C40.22015157 446.51941425 33.14351927 446.52988081 26.06686449 446.53986382 C23.62431563 446.54391454 21.18176688 446.54803156 18.73921824 446.55221391 C7.27243249 446.57123008 -4.19434693 446.58547446 -15.66114539 446.59382588 C-28.8835989 446.60361687 -42.10588584 446.62999993 -55.32828063 446.67032677 C-65.56378833 446.7004713 -75.79924817 446.71529276 -86.0347994 446.71860689 C-92.14277349 446.72095711 -98.25056886 446.7299161 -104.35849524 446.75506806 C-110.09843861 446.77832775 -115.83808522 446.78259036 -121.57806349 446.77230668 C-123.68233492 446.77181088 -125.78662091 446.77814421 -127.89084768 446.79186273 C-130.76704942 446.80956388 -133.64218365 446.80248432 -136.51838636 446.78932977 C-137.76202665 446.80578364 -137.76202665 446.80578364 -139.03079098 446.82256991 C-144.73944882 446.75968551 -148.99265655 445.42581219 -153.79641676 442.30158257 C-155.63626051 440.40705132 -155.63626051 440.40705132 -156.73391676 438.48908257 C-157.30432692 437.55128961 -157.30432692 437.55128961 -157.88626051 436.59455132 C-160.03928714 431.17040268 -159.94546524 425.25257208 -159.94168043 419.48957086 C-159.94671835 418.36855477 -159.94671835 418.36855477 -159.95185804 417.2248919 C-159.96129495 414.77387568 -159.9633074 412.32292829 -159.96438551 409.87189507 C-159.96760287 408.15468085 -159.9709673 406.43746689 -159.97447157 404.72025323 C-159.98044449 401.12772764 -159.98231333 397.53522605 -159.98171949 393.94269586 C-159.98161792 389.35769708 -159.99527386 384.77285332 -160.0124917 380.18789124 C-160.02365337 376.6429553 -160.02563743 373.09805635 -160.02510977 369.55310464 C-160.02628346 367.86355707 -160.03067063 366.17400834 -160.03844213 364.48447824 C-160.13515479 341.29044758 -160.13515479 341.29044758 -153.79641676 334.30158257 C-145.99384537 328.82827095 -136.51077426 329.74728275 -127.43826246 329.80329156 C-125.683141 329.7994641 -123.92802268 329.79384142 -122.17291212 329.78656793 C-118.40790584 329.77465519 -114.64317863 329.7750771 -110.87816763 329.78516221 C-104.92342226 329.80076798 -98.96896172 329.78701494 -93.01423597 329.76912713 C-81.45330474 329.73836039 -69.89246133 329.73680458 -58.33149672 329.7387774 C-43.60489677 329.740172 -28.87836395 329.72983273 -14.15181369 329.69019967 C-8.23330425 329.67527016 -2.31504833 329.67553249 3.60346496 329.6876775 C7.28358734 329.69238776 10.96361261 329.68487015 14.6437192 329.67413354 C16.34890549 329.67172743 18.05410802 329.67446265 19.75927591 329.6827414 C22.08880233 329.69337478 24.41758345 329.68560253 26.74708605 329.67339349 C28.04987348 329.6739798 29.3526609 329.67456611 30.69492674 329.67517018 C34.54184567 329.26556575 36.92848076 328.33176151 40.20358324 326.30158257 C45.24125957 319.90237211 45.84340137 314.23532736 45.20358324 306.30158257 C43.96714104 300.12910732 42.05527593 296.46985854 37.20358324 292.30158257 C33.81584422 291.14217297 33.81584422 291.14217297 30.02536058 290.64679742 C29.32779335 290.53288344 28.63022612 290.41896947 27.91152048 290.30160356 C25.67842132 289.94474846 23.4424626 289.6199969 21.20358324 289.30158257 C20.12696806 289.14227635 20.12696806 289.14227635 19.02860308 288.97975183 C14.52105499 288.31388518 10.00816905 287.69629235 5.49092531 287.10006356 C2.96991306 286.76688052 0.44976725 286.42769045 -2.07025099 286.08707452 C-9.22381628 285.12111235 -16.37862603 284.1645811 -23.53420973 283.21369195 C-114.83414898 271.06521282 -114.83414898 271.06521282 -142.98391676 238.73908257 C-162.49044225 213.24267451 -160.1419263 177.50000766 -160.05715895 147.17926812 C-160.04575574 143.06260989 -160.05254501 138.94620997 -160.0640378 134.82956052 C-160.15331335 97.19733311 -158.96369995 62.80084516 -131.61282301 34.12189507 C-115.91181897 18.39911433 -95.94193081 9.27211963 -74.48391676 4.42658257 C-73.24472486 4.14004815 -73.24472486 4.14004815 -71.98049879 3.84772515 C-48.4243456 -1.01114461 -23.91494314 -0.01250832 0 0 Z " fill="#FFFFFF" transform="translate(245.79641675949097,30.69841742515564)"/>
</svg>
