<?xml version="1.0" encoding="UTF-8"?>
<svg version="1.1" xmlns="http://www.w3.org/2000/svg" width="768" height="512">
<path d="M0 0 C1.13915365 -0.00320648 2.27830731 -0.00641296 3.45198077 -0.0097166 C7.2670353 -0.0180143 11.08193274 -0.01209298 14.89698982 -0.00622082 C17.66068789 -0.00813593 20.42437885 -0.01304994 23.18807328 -0.01781338 C29.19588692 -0.02656464 35.20366648 -0.02789132 41.21148491 -0.02431011 C50.1454793 -0.01899871 59.07944074 -0.02510281 68.01343155 -0.03339304 C84.89820612 -0.04863054 101.78296569 -0.05033839 118.66774569 -0.04787002 C131.70611827 -0.04603715 144.74448593 -0.04779683 157.78285789 -0.05209446 C159.65626442 -0.05269686 161.52967094 -0.05329806 163.40307746 -0.05389806 C166.22613887 -0.05480532 169.04920028 -0.05571398 171.87226168 -0.05663041 C198.1183173 -0.06505955 224.36437107 -0.06939589 250.61042786 -0.06522369 C251.59978145 -0.06506732 252.58913504 -0.06491094 253.60846905 -0.06474983 C258.62287325 -0.06394405 263.63727745 -0.06309828 268.65168165 -0.06223653 C270.14548936 -0.06197989 270.14548936 -0.06197989 271.66947501 -0.06171808 C273.6833691 -0.06137142 275.69726318 -0.06102289 277.71115727 -0.06067249 C309.05030374 -0.05531479 340.38942208 -0.06324727 371.72856331 -0.08170605 C406.94070074 -0.10242174 442.15282074 -0.11314963 477.3649646 -0.10913056 C481.11941536 -0.10873522 484.87386612 -0.10837367 488.62831688 -0.10803318 C489.55275362 -0.10794245 490.47719036 -0.10785172 491.42964034 -0.10775824 C505.38477649 -0.10659227 519.33989503 -0.11324044 533.29502678 -0.1238451 C549.16545682 -0.13589293 565.0358481 -0.13746082 580.90627871 -0.12505493 C589.78653636 -0.11842392 598.6667013 -0.120063 607.54695153 -0.13364345 C613.48124666 -0.14188652 619.41547234 -0.13919225 625.34976183 -0.12766818 C628.72923319 -0.12141031 632.1083759 -0.1214739 635.48786007 -0.13153151 C639.13444966 -0.14163108 642.78055383 -0.13322031 646.42712402 -0.12025452 C647.46765283 -0.12756386 648.50818164 -0.13487321 649.58024162 -0.14240405 C665.44755804 -0.02552005 680.00717597 5.31753338 691.33940315 16.50447559 C696.54306419 21.89238477 700.32166941 27.37099294 703.33940315 34.25447559 C703.70070068 35.03972898 704.06199821 35.82498236 704.43424416 36.6340313 C708.51990582 46.9161245 707.90158909 57.46317582 707.85698128 68.34016895 C707.86240859 70.56712774 707.86953466 72.79408293 707.87822151 75.02103138 C707.89638619 81.04175312 707.88941529 87.06219928 707.87670517 93.08292556 C707.8665407 99.40025309 707.87598052 105.71755785 707.88224983 112.03488636 C707.88998152 123.32101088 707.87759079 134.60699621 707.85721248 145.89309288 C707.83934829 156.10240136 707.84244516 166.31152782 707.86088753 176.52083302 C707.88234965 188.40719544 707.89023159 200.29346988 707.87843847 212.17985541 C707.8722215 218.46064721 707.8713183 224.74131396 707.88458443 231.02209759 C707.89619148 236.92954687 707.88802852 242.83665457 707.8650074 248.74406719 C707.85974597 250.90427555 707.86118975 253.06451295 707.87005806 255.22470951 C707.94417617 275.12278191 704.83265429 289.95498522 690.74565315 304.93416309 C681.31790866 314.02520243 668.70860983 320.37393752 655.41692299 320.38212609 C654.44407145 320.38514206 653.47121991 320.38815803 652.46888801 320.39126539 C651.40572877 320.38949592 650.34256953 320.38772645 649.24719334 320.38590336 C647.53951901 320.38898231 647.53951901 320.38898231 645.7973462 320.39212346 C642.62768686 320.39681465 639.45806334 320.39701783 636.28840212 320.39534587 C632.84357666 320.39461504 629.39875884 320.3996371 625.95393664 320.40392089 C619.11715752 320.41150373 612.28038621 320.41369409 605.44360333 320.41424994 C597.25619028 320.41516331 589.06878448 320.42183005 580.88137454 320.42859677 C561.09143086 320.4446622 541.30148795 320.4505607 521.51153892 320.45534552 C512.15043507 320.45768096 502.78933184 320.46128355 493.42822847 320.46504089 C461.38734673 320.47787698 429.34646534 320.48859604 397.30558109 320.4920435 C395.29395683 320.49226513 393.28233256 320.49248691 391.2707083 320.49270885 C389.25420932 320.49292949 387.23771035 320.49314997 385.22121137 320.49337029 C381.17572908 320.49381285 377.13024678 320.49425996 373.08476448 320.49470997 C372.08171889 320.49481936 371.0786733 320.49492875 370.04523238 320.49504146 C337.52079696 320.49867216 304.99638383 320.51459241 272.47195694 320.53790033 C238.08940081 320.56249481 203.70685742 320.57621616 169.32429224 320.57741141 C165.55010418 320.57758287 161.77591612 320.5777983 158.00172806 320.57804585 C156.60775001 320.5781295 156.60775001 320.5781295 155.1856108 320.57821484 C140.22816008 320.57936563 125.27073222 320.59039007 110.31328923 320.6049329 C95.27937944 320.61929733 80.24549897 320.62253519 65.2115842 320.61449292 C56.2802488 320.61003639 47.34900802 320.61389824 38.41768504 320.62973143 C32.44916995 320.63948329 26.48072114 320.6383012 20.51220666 320.6282952 C17.11309899 320.62290459 13.71432083 320.6238507 10.31520461 320.63480392 C6.6474728 320.64587482 2.98021952 320.63842221 -0.68749905 320.62641239 C-1.73427013 320.63400759 -2.78104121 320.64160278 -3.85953262 320.64942813 C-20.1474996 320.53433559 -34.34411682 314.82159736 -45.89497185 303.30525684 C-59.99237069 288.32071083 -61.25867792 271.6528258 -61.17817497 252.14705372 C-61.1836034 249.92979951 -61.19073008 247.71254891 -61.19941521 245.49530506 C-61.21756564 239.50563271 -61.21061523 233.51623764 -61.19789886 227.52656078 C-61.1877282 221.23993561 -61.1971758 214.9533332 -61.20344353 208.66670704 C-61.2111726 197.43723826 -61.19879011 186.20788309 -61.17840618 174.97844106 C-61.160538 164.82087878 -61.163643 154.66349942 -61.18208122 144.50594044 C-61.20354356 132.67706939 -61.2114255 120.84828675 -61.19963217 109.01939249 C-61.19341588 102.7699145 -61.19251021 96.52056219 -61.20577812 90.27109241 C-61.21738529 84.39399793 -61.20922202 78.5172468 -61.1862011 72.64018917 C-61.18093997 70.4912679 -61.18238292 68.34231742 -61.19125175 66.19340801 C-61.26937348 45.33138292 -57.6528666 30.53455506 -42.66059685 15.25447559 C-42.11790154 14.68728809 -41.57520622 14.12010059 -41.0160656 13.53572559 C-29.66861265 2.73409949 -15.07515438 -0.06341081 0 0 Z M-31.47309685 35.50447559 C-33.16519153 37.56754892 -33.16519153 37.56754892 -34.66059685 40.25447559 C-35.16232288 41.10130327 -35.16232288 41.10130327 -35.6741848 41.96523857 C-40.21565333 51.17340424 -39.22051918 61.4066243 -39.17817497 71.41048145 C-39.18360051 73.56157371 -39.19072558 75.71266224 -39.19941521 77.86374378 C-39.21760107 83.6861118 -39.21060018 89.50819528 -39.19789886 95.33056808 C-39.18774539 101.43530285 -39.19717118 107.54001387 -39.20344353 113.64474964 C-39.21071363 123.89613164 -39.20114945 134.14739824 -39.18208122 144.3987627 C-39.16031962 156.23447039 -39.16736141 168.06990236 -39.18938684 179.90560335 C-39.20756585 190.08341128 -39.21008674 200.26113643 -39.19963217 210.43895537 C-39.19341028 216.51068103 -39.19252564 222.58227731 -39.20577812 228.65399456 C-39.21737212 234.36442943 -39.20924584 240.0745105 -39.1862011 245.78490734 C-39.18093273 247.87500135 -39.18239551 249.96512537 -39.19125175 252.05520725 C-39.24778234 266.75716899 -38.75540976 278.01106226 -28.02778435 289.09041309 C-19.28806766 297.0801871 -10.92935589 298.55688287 0.60241508 298.5117445 C1.73503006 298.51525057 2.86764503 298.51875665 4.03458166 298.52236897 C7.84544556 298.53170328 11.65615732 298.52675432 15.46702766 298.52190113 C18.22060017 298.52453242 20.97416477 298.53015749 23.7277329 298.53563178 C29.72268868 298.5459372 35.71761215 298.54877463 41.71257591 298.54671955 C50.62744997 298.54367098 59.54228826 298.55199035 68.45715537 298.5624688 C85.3053809 298.58181856 102.15359427 298.58743739 119.00182959 298.58858292 C132.0121554 298.58950173 145.02247642 298.59361696 158.03280067 298.59998417 C161.77675477 298.60177924 165.52070887 298.60355886 169.26466298 298.60533392 C170.1954009 298.60577602 171.12613882 298.60621812 172.08508092 298.60667361 C198.26790117 298.61898338 224.45071975 298.6268746 250.63354301 298.62598705 C251.62085415 298.6259559 252.60816529 298.62592474 253.62539495 298.62589264 C258.6295865 298.62572642 263.63377804 298.62552834 268.63796958 298.62532322 C270.1287658 298.62526339 270.1287658 298.62526339 271.64967912 298.62520234 C273.65951496 298.62512147 275.6693508 298.62503787 277.67918665 298.62495156 C308.9507097 298.62372598 340.22218938 298.63873993 371.49370003 298.66609669 C406.62084076 298.69681369 441.74795299 298.71402942 476.875108 298.71217024 C480.62031953 298.71202098 484.36553104 298.71192357 488.11074257 298.71186161 C489.49400862 298.71182665 489.49400862 298.71182665 490.90521943 298.71179098 C505.74932416 298.71172942 520.59339126 298.72450442 535.4374848 298.74172614 C550.35464044 298.75867476 565.27174098 298.7606625 580.18890092 298.7475075 C589.05160748 298.74011323 597.91414675 298.74379051 606.77683562 298.76339218 C612.69826005 298.77538238 618.61956319 298.77281182 624.54098204 298.75845118 C627.91404989 298.75067984 631.28652944 298.75136969 634.65961656 298.76536588 C638.29771753 298.77946324 641.93495511 298.76891771 645.57302666 298.75225353 C646.61383133 298.76218989 647.654636 298.77212625 648.72698021 298.78236371 C659.8523037 298.67454719 668.1900764 295.34465812 676.17534065 287.62556934 C683.17182768 279.9597433 685.6464509 272.46169077 685.60009956 262.19676685 C685.60392511 261.29481976 685.60775066 260.39287266 685.61169213 259.46359384 C685.62199612 256.4467253 685.6180349 253.43004801 685.61406136 250.413167 C685.61840928 248.24794813 685.62359269 246.0827308 685.62954903 243.91751575 C685.64294191 238.03940486 685.64351734 232.16135825 685.64098573 226.28323507 C685.63991617 221.37515952 685.64479901 216.46709698 685.64959115 211.55902421 C685.66068743 199.97930801 685.66112311 188.39962424 685.65507698 176.81990528 C685.64903673 164.87634247 685.66134929 152.93289745 685.68264705 140.98935473 C685.70026382 130.73271039 685.70626426 120.47610354 685.70300931 110.21944463 C685.70119637 104.09467166 685.70383375 97.9699827 685.71772385 91.84522343 C685.73029865 86.08485207 685.72836122 80.3246643 685.71531296 74.56429577 C685.71294685 72.45197519 685.71568306 70.33964171 685.72393608 68.22733593 C685.73440222 65.34006179 685.7263037 62.4534038 685.71362495 59.56615162 C685.72099924 58.7336475 685.72837352 57.90114337 685.73597127 57.04341185 C685.64406716 47.06991977 681.38507033 38.83191652 674.74565315 31.49275684 C665.61446304 22.94303403 654.23267967 22.10278531 642.32717133 22.12304783 C641.20951679 22.12099519 640.09186225 22.11894256 638.94033939 22.11682773 C635.17437302 22.11114825 631.40844312 22.11261615 627.64247322 22.1140337 C624.92347768 22.11200052 622.20448451 22.10847646 619.48549044 22.1050303 C612.78309048 22.09745253 606.08069849 22.09525735 599.37829469 22.09470124 C591.35091174 22.09378739 583.32353616 22.08711921 575.29615638 22.08035442 C555.89441477 22.06429454 536.49267395 22.05839123 517.09092689 22.05360567 C507.9129593 22.0512698 498.73499235 22.04766716 489.55702525 22.04391029 C458.14082367 22.03107504 426.72462243 22.02035564 395.30841827 22.01690769 C393.33630317 22.01668606 391.36418806 22.01646428 389.39207295 22.01624234 C387.41519259 22.0160217 385.43831223 22.01580122 383.46143186 22.01558089 C379.49546266 22.01513834 375.52949345 22.01469122 371.56352425 22.01424122 C370.08852962 22.01407713 370.08852962 22.01407713 368.58373712 22.01390973 C336.69650807 22.01027879 304.80930174 21.99435721 272.92208139 21.97105085 C239.21011751 21.94645583 205.49816661 21.93273501 171.78619349 21.93153977 C168.08560347 21.93136832 164.38501346 21.93115289 160.68442345 21.93090534 C159.77323221 21.93084957 158.86204097 21.9307938 157.92323787 21.93073635 C143.25873935 21.92958564 128.59426414 21.91856202 113.92977349 21.90401829 C99.19060015 21.88965322 84.45145671 21.88641637 69.71227829 21.89445826 C60.95645806 21.8989144 52.20073435 21.89505453 43.4449268 21.87921976 C37.59344068 21.86946659 31.74202215 21.87065123 25.89053665 21.88065599 C22.55828635 21.88604564 19.2263721 21.88510279 15.89411311 21.87414727 C12.2981356 21.86307301 8.70264587 21.87053135 5.10668182 21.8825388 C4.08105308 21.8749436 3.05542434 21.86734841 1.99871594 21.85952306 C-11.29518401 21.95528579 -22.7504212 25.04465692 -31.47309685 35.50447559 Z " fill="#FFFFFF" transform="translate(60.66059684753418,95.7455244064331)"/>
<path d="M0 0 C1.41748042 -0.00462025 2.83495602 -0.01098066 4.2524218 -0.01890898 C8.11075583 -0.03547121 11.96868964 -0.02741646 15.82702434 -0.0149641 C20.00227822 -0.00586175 24.17746637 -0.01990882 28.35270691 -0.03088379 C36.51719379 -0.04861812 44.68153312 -0.04485193 52.84602565 -0.03323323 C59.48416423 -0.0241797 66.1222616 -0.02298318 72.76040459 -0.02732849 C73.70712745 -0.02794142 74.65385031 -0.02855436 75.62926174 -0.02918586 C77.55282404 -0.03046483 79.47638632 -0.03176168 81.39994859 -0.03307623 C99.41312695 -0.04446696 117.42622371 -0.03139167 135.43938868 -0.00987476 C150.87938731 0.00799775 166.31926563 0.00488792 181.75926208 -0.0135498 C199.71192257 -0.03497816 217.66451166 -0.04337151 235.61718315 -0.03110075 C237.53314871 -0.02982662 239.44911429 -0.02856914 241.36507988 -0.02732849 C242.77892953 -0.02640284 242.77892953 -0.02640284 244.22134181 -0.02545848 C250.84831889 -0.0220117 257.4752505 -0.02781937 264.10222054 -0.0372467 C272.18278062 -0.0484898 280.26318538 -0.04537807 288.34372777 -0.02412373 C292.46275864 -0.01364476 296.58153094 -0.00943734 300.70055962 -0.02272034 C304.47756221 -0.03471578 308.25406869 -0.0279654 312.03102683 -0.00681013 C314.03071446 -0.00028687 316.03043704 -0.01321583 318.03008753 -0.02703905 C333.84994953 0.10926186 346.66204381 6.11874538 358.10520935 16.91418457 C367.8524016 27.48956962 372.72714115 40.56963861 372.61555099 54.91057968 C372.39080558 59.78662345 371.61547543 64.5789149 370.87522888 69.39904785 C370.7028772 70.55644974 370.53052551 71.71385162 370.35295105 72.90632629 C369.78432956 76.7145827 369.20649131 80.52138018 368.62864685 84.32824707 C368.22850811 86.9920955 367.83042709 89.65625026 367.43232727 92.32040405 C366.49072559 98.61414352 365.54265189 104.90688915 364.59203136 111.19927204 C363.20372243 120.39067263 361.82486777 129.58349218 360.44634819 138.77636528 C360.24115568 140.14464217 360.03596123 141.51291877 359.83076477 142.88119507 C359.68020545 143.88528154 359.68020545 143.88528154 359.52660453 144.90965259 C358.84246567 149.47046507 358.15517707 154.03079595 357.46681213 158.5909729 C357.10282897 161.00744825 356.73896367 163.42394135 356.37522888 165.8404541 C356.2038698 166.9754793 356.03251072 168.11050449 355.85595894 169.27992439 C354.79362035 176.36449206 353.82209951 183.45156196 353.00776672 190.56893921 C351.46581385 199.42126538 347.19223491 206.72138727 341.49583435 213.50793457 C340.41302185 214.99293457 340.41302185 214.99293457 339.30833435 216.50793457 C330.95253888 226.21229197 318.92159388 231.38740582 306.49583435 233.50793457 C304.69253434 233.59357656 302.88650843 233.63015032 301.08117676 233.62840271 C300.00506952 233.62971884 298.92896229 233.63103497 297.82024574 233.63239098 C296.64850492 233.62862261 295.47676411 233.62485424 294.26951599 233.62097168 C292.40605561 233.62068183 292.40605561 233.62068183 290.50494957 233.62038612 C287.08660581 233.61848524 283.66833482 233.61190415 280.25000644 233.60292172 C277.34259567 233.5959874 274.43518454 233.59262386 271.52776796 233.58910674 C238.7666967 233.54770156 206.00638542 233.33123784 173.24629545 233.08762455 C170.90818169 233.07024764 168.57006727 233.0529621 166.23195267 233.03569794 C151.95825644 232.9302202 137.68457028 232.82346754 123.41091919 232.71203613 C107.92256634 232.59138607 92.43426837 232.47905991 76.94570065 232.3890295 C67.79269825 232.33551312 58.63979738 232.27280503 49.48691654 232.20143986 C44.37180521 232.1618958 39.2567733 232.12705144 34.14155579 232.10464478 C29.4697768 232.0840667 24.79829472 232.05007565 20.1266861 232.00536919 C18.46143162 231.9917742 16.79612821 231.98303075 15.13082123 231.97987556 C-2.71933515 231.94076353 -16.94839202 228.51571334 -30.2190094 215.91809082 C-33.86875038 212.06870589 -36.82586264 208.08365429 -39.50416565 203.50793457 C-40.21379456 202.30910645 -40.21379456 202.30910645 -40.9377594 201.08605957 C-44.32153238 194.29843188 -45.15897123 187.57489785 -45.97608948 180.1114502 C-46.10205663 179.01166588 -46.22802378 177.91188156 -46.35780811 176.77877045 C-46.74757228 173.35596803 -47.12684972 169.93212938 -47.50416565 166.50793457 C-47.73280275 164.46527419 -47.96158757 162.42263034 -48.1905365 160.38000488 C-48.87563561 154.22624415 -49.54190922 148.07052455 -50.2033844 141.91418457 C-50.32199137 140.81094345 -50.44059834 139.70770233 -50.56279945 138.57102966 C-51.18744894 132.75498268 -51.80967147 126.93868134 -52.43019104 121.12219238 C-52.93826887 116.36448357 -53.45153628 111.60737738 -53.96925354 106.85070801 C-54.60318021 101.02608343 -55.22817377 95.20056319 -55.84697914 89.37431335 C-56.08114373 87.18307447 -56.31829486 84.99215228 -56.55870628 82.80158997 C-61.42785184 38.34679589 -61.42785184 38.34679589 -47.50416565 20.50793457 C-34.74165739 5.47760821 -19.40140539 -0.13435063 0 0 Z M-32.90260315 30.50012207 C-39.68589211 39.00405019 -42.17266417 49.24248093 -41.09778595 59.94794083 C-40.99534828 60.81819775 -40.89291061 61.68845467 -40.78736877 62.58508301 C-40.68877815 63.53011562 -40.59018753 64.47514824 -40.48860931 65.44881821 C-40.27838724 67.45389269 -40.06190716 69.45831984 -39.83952332 71.46208191 C-39.51009619 74.45407106 -39.20306865 77.44743175 -38.90431213 80.44262695 C-38.27731255 86.72137927 -37.62676576 92.99755337 -36.97291565 99.27355957 C-36.85588791 100.39932152 -36.73886017 101.52508347 -36.61828613 102.68495941 C-36.0016213 108.61651774 -35.38327993 114.54789831 -34.76344299 120.47912598 C-34.12716336 126.57084035 -33.4966859 132.6631411 -32.86746979 138.75558853 C-32.37819085 143.48296074 -31.88469001 148.20988543 -31.39004517 152.93669891 C-31.15565693 155.1834666 -30.92283075 157.43039784 -30.69165039 159.67749786 C-30.36865147 162.81319382 -30.03965428 165.9482074 -29.70924377 169.08312988 C-29.57045555 170.45009758 -29.57045555 170.45009758 -29.42886353 171.84468079 C-27.95480235 185.64887452 -25.17176173 197.39462436 -13.94166565 206.57043457 C3.50528729 218.94596974 29.92222282 214.70395966 50.39721441 214.81119442 C54.51813013 214.83369978 58.6390129 214.86126973 62.75990295 214.88800049 C72.56454511 214.95037393 82.36922717 215.00387181 92.17392969 215.05575228 C95.85184117 215.07532178 99.52974964 215.09542675 103.20765835 215.11550814 C123.69813884 215.22717833 144.1886548 215.32859186 164.679232 215.42077005 C176.69157464 215.47481821 188.70386142 215.53495395 200.71613753 215.6021508 C214.66100788 215.68009158 228.60582155 215.74464411 242.55086231 215.78275204 C249.18566754 215.80111896 255.82032303 215.82590426 262.45503235 215.86709595 C268.6019615 215.90483116 274.7486458 215.92350113 280.8956871 215.92694855 C283.11237936 215.93137975 285.32907086 215.94256023 287.54568863 215.96126556 C301.57817817 216.07467685 313.21881324 215.91400587 324.4919281 206.49621582 C331.94740974 199.09886659 335.59498083 190.15209215 336.8981781 179.91809082 C337.01681213 179.05745026 337.13544617 178.19680969 337.25767517 177.31008911 C337.51903896 175.40894492 337.77603265 173.50719617 338.0292511 171.60494995 C338.74726026 166.21296742 339.49699581 160.82539604 340.24583435 155.43762207 C340.41264206 154.23318954 340.57944977 153.02875702 340.75131226 151.78782654 C342.15909267 141.71115617 343.6695214 131.6515153 345.20748711 121.5939579 C345.6209153 118.89021766 346.03319434 116.18630438 346.44519043 113.48234558 C348.67668646 98.84524275 348.67668646 98.84524275 349.76631165 91.81362915 C350.4334528 87.50786418 351.09214101 83.20088147 351.74517822 78.89295578 C351.9890791 77.29485342 352.23612534 75.69722726 352.4866333 74.10014725 C355.78576912 53.24140642 355.78576912 53.24140642 348.80052185 33.80871582 C342.03865638 24.65145267 333.49826722 19.91404868 322.49583435 17.50793457 C317.91251287 17.09415774 313.35619488 17.10247313 308.75657654 17.12698364 C307.38563541 17.12352126 306.01469708 17.11875281 304.6437645 17.11280191 C300.90026483 17.10034188 297.15699623 17.10643931 293.41349602 17.11576056 C289.36707411 17.12257134 285.32069087 17.11205981 281.27427673 17.1038208 C273.35672024 17.09050285 265.43924922 17.09335255 257.52168941 17.10205872 C251.08512612 17.1088425 244.64858672 17.10974899 238.21202087 17.10648727 C237.29484307 17.10602758 236.37766527 17.10556788 235.4326942 17.10509425 C233.56928284 17.10413504 231.7058715 17.1031624 229.84246016 17.10217647 C212.38208795 17.09362826 194.92176305 17.10344779 177.4613986 17.11957757 C162.48978058 17.13298023 147.51823236 17.13065198 132.5466156 17.11682129 C115.14738441 17.10075543 97.74819464 17.09445218 80.34895706 17.10365808 C78.49252066 17.1046137 76.63608425 17.10555681 74.77964783 17.10648727 C73.40965641 17.10718151 73.40965641 17.10718151 72.0119884 17.10788978 C65.58549169 17.11047665 59.15902132 17.10611521 52.73252869 17.09904861 C44.89743414 17.09062225 37.06242973 17.09293764 29.22734547 17.10889085 C25.23216099 17.11675828 21.23712662 17.11989133 17.24194336 17.10994339 C13.58034417 17.10096416 9.91903337 17.105982 6.25746012 17.12187605 C4.31480655 17.12678232 2.37213276 17.11705628 0.42950058 17.10670435 C-12.90954926 17.19587874 -23.5967287 20.68433669 -32.90260315 30.50012207 Z " fill="#FFFFFF" transform="translate(235.50416564941406,140.4920654296875)"/>
<path d="M0 0 C10.98822163 9.45707599 18.10548403 21.30458026 20.046875 35.7734375 C21.10643603 52.42077135 17.69064347 66.35736012 6.671875 79.0859375 C-2.91348874 89.18252064 -15.0129662 96.34642415 -29.21484375 97.109375 C-46.42736657 97.45797818 -59.98984441 92.96647467 -72.66015625 81.1015625 C-83.16899161 70.4316036 -88.18934576 57.78116635 -88.328125 42.7734375 C-88.14465575 26.93704585 -82.52907235 14.69510904 -71.65625 3.28515625 C-51.78740829 -15.17678771 -21.57143316 -16.26417579 0 0 Z M-61.953125 18.7734375 C-67.60626168 26.35776994 -70.34906743 33.66498658 -70.328125 43.0859375 C-70.32651367 43.8385083 -70.32490234 44.5910791 -70.32324219 45.36645508 C-70.19336721 51.25603054 -69.1352732 55.74608531 -65.953125 60.7734375 C-65.375625 61.8046875 -64.798125 62.8359375 -64.203125 63.8984375 C-58.52066945 71.15935293 -51.66292537 75.87017071 -42.953125 78.7734375 C-29.41822054 79.51041659 -19.9404831 78.45732349 -8.953125 69.7734375 C-1.88435586 63.096507 2.0448698 55.04886503 2.39013672 45.34155273 C2.55350005 34.69654642 0.36197714 25.25826328 -7.23046875 17.296875 C-16.38474007 9.20126091 -25.27417613 6.10599264 -37.4609375 6.43359375 C-47.30789551 7.39185476 -55.0703374 11.73394896 -61.953125 18.7734375 Z " fill="#FFFFFF" transform="translate(118.953125,214.2265625)"/>
<path d="M0 0 C3.55440413 2.79541859 6.79871137 5.80950829 10 9 C10.65097656 9.62777344 11.30195312 10.25554687 11.97265625 10.90234375 C21.1359579 20.42814964 24.9360536 32.91047549 25.02734375 45.88671875 C24.70110562 58.41246695 21.74940567 69.0284756 14 79 C13.47535156 79.68835938 12.95070313 80.37671875 12.41015625 81.0859375 C4.18990344 91.18234212 -7.96112305 98.51246615 -21 100 C-37.23574658 100.91266031 -51.54529859 98.78284595 -64.1875 87.6875 C-65.80989531 86.14393581 -67.41519616 84.58213582 -69 83 C-69.66257812 82.34902344 -70.32515625 81.69804687 -71.0078125 81.02734375 C-81.67118541 69.78694849 -83.61473412 55.81890581 -83.30859375 40.9921875 C-82.64688672 26.4236501 -75.61245622 14.76185158 -65.16796875 4.9296875 C-64.45253906 4.29289063 -63.73710938 3.65609375 -63 3 C-62.45988281 2.50757813 -61.91976562 2.01515625 -61.36328125 1.5078125 C-44.77434347 -11.94719497 -17.37890947 -11.20592083 0 0 Z M-45 13 C-45.73605469 13.41378906 -46.47210937 13.82757813 -47.23046875 14.25390625 C-56.35796531 19.86494685 -61.88404105 26.73073745 -65 37 C-67.32314997 47.10801014 -65.94418914 56.83771457 -60.59375 65.734375 C-54.1137349 74.94616117 -46.52759928 79.88560346 -35.62109375 82.58984375 C-24.22306921 84.40455606 -14.1135966 80.07573106 -4.8125 73.875 C2.3985965 67.36241427 6.40401678 58.71663624 7.24609375 49.2265625 C7.69958923 38.53506306 4.54689292 29.29572346 -2.5625 21.2265625 C-9.04997108 14.3625864 -16.0839142 10.48307381 -25.68359375 9.69921875 C-35.74667077 9.58803192 -35.74667077 9.58803192 -45 13 Z " fill="#FFFFFF" transform="translate(718,211)"/>
<path d="M0 0 C5.28736781 3.62883027 8.68574929 7.67084527 10 14 C10.71030037 20.84682979 10.13892528 26.36041175 6 32 C1.7436472 36.53876483 -2.50742153 39.53659923 -8.796875 40.37109375 C-16.04264002 40.53402762 -21.29912763 39.67494851 -27 35 C-32.38296937 29.10067865 -33.36696794 23.82789223 -33.2734375 16.07421875 C-32.71696204 9.81784465 -30.15246897 5.79405479 -25.5625 1.625 C-17.73358663 -4.45314371 -8.71969317 -4.86290581 0 0 Z M-16 17 C-15.67958603 19.60280568 -15.67958603 19.60280568 -15 22 C-12.60280568 22.67958603 -12.60280568 22.67958603 -10 23 C-7.73160017 21.16734675 -7.73160017 21.16734675 -7.8125 18.4375 C-7.72996677 16.05310277 -7.72996677 16.05310277 -9 15 C-12.961168 14.60909667 -12.961168 14.60909667 -16 17 Z " fill="#FFFFFF" transform="translate(332,197)"/>
<path d="M0 0 C5.2385272 2.93687509 8.36982293 6.55834052 10.75 12.0625 C12.61127625 18.79905098 11.91793902 24.85333953 8.75 31.0625 C5.99237203 35.35306919 2.80012768 38.87356889 -2.13671875 40.625 C-9.19973305 42.08721368 -16.24780588 42.04039759 -22.56640625 38.3359375 C-27.00608207 34.97785324 -30.36498118 30.4827983 -31.76953125 25.0546875 C-32.78254908 17.73394533 -31.26485794 11.6892443 -27.6875 5.25 C-19.47495417 -2.12023344 -10.22847058 -4.39456745 0 0 Z M-12.25 16.0625 C-12.91 16.7225 -13.57 17.3825 -14.25 18.0625 C-13.92958603 20.66530568 -13.92958603 20.66530568 -13.25 23.0625 C-11.40274948 23.75409401 -11.40274948 23.75409401 -9.25 24.0625 C-8.26 23.4025 -7.27 22.7425 -6.25 22.0625 C-6.58 20.4125 -6.91 18.7625 -7.25 17.0625 C-9.64719432 16.38291397 -9.64719432 16.38291397 -12.25 16.0625 Z " fill="#FFFFFF" transform="translate(262.25,195.9375)"/>
<path d="M0 0 C5.00466408 3.62838146 9.51894526 7.86933578 11.5 13.8125 C12.17066628 21.2338072 12.13827857 27.7188085 7.5 33.8125 C2.54129641 39.1914327 -2.40287098 41.7473017 -9.75 42.25 C-16.21886946 42.0645518 -21.90777725 39.46244431 -26.4296875 34.83984375 C-31.37188443 28.51430462 -32.33855271 22.76677144 -31.5 14.8125 C-29.45420986 7.81244699 -24.70864573 3.45870858 -18.6796875 -0.33203125 C-12.99471171 -2.56323143 -5.67058293 -1.92394778 0 0 Z M-11.5 15.8125 C-13.76839983 17.64515325 -13.76839983 17.64515325 -13.6875 20.375 C-13.77003323 22.75939723 -13.77003323 22.75939723 -12.5 23.8125 C-10.04190002 24.0625773 -10.04190002 24.0625773 -7.5 23.8125 C-6.84 23.1525 -6.18 22.4925 -5.5 21.8125 C-5.82041397 19.20969432 -5.82041397 19.20969432 -6.5 16.8125 C-8.89719432 16.13291397 -8.89719432 16.13291397 -11.5 15.8125 Z " fill="#FFFFFF" transform="translate(362.5,271.1875)"/>
<path d="M0 0 C5.26321814 3.29087345 8.99981573 8.31426725 10.88671875 14.1796875 C11.79452416 21.2415691 11.21939425 27.39011819 6.88671875 33.1796875 C2.60951939 37.73054653 -1.64325959 40.77311821 -7.98046875 41.515625 C-14.36778101 41.59857711 -19.19520877 41.50855325 -24.11328125 37.1796875 C-29.78871406 31.60702913 -32.20857204 27.93213194 -32.42578125 19.9296875 C-32.34066957 13.53780051 -30.86456756 9.10700398 -26.46484375 4.42578125 C-18.87805226 -2.44871322 -9.59473491 -4.08700676 0 0 Z M-15.11328125 18.1796875 C-14.74646467 21.11422011 -14.24890879 22.04405996 -12.11328125 24.1796875 C-10.05613293 24.16585885 -10.05613293 24.16585885 -8.11328125 23.1796875 C-6.82891391 21.1959108 -6.82891391 21.1959108 -6.11328125 19.1796875 C-6.77328125 18.1896875 -7.43328125 17.1996875 -8.11328125 16.1796875 C-11.57123908 15.74744277 -12.59303734 15.65944359 -15.11328125 18.1796875 Z " fill="#FFFFFF" transform="translate(462.11328125,195.8203125)"/>
<path d="M0 0 C5.18479983 3.09303547 8.81836321 7.13728336 11.85546875 12.34375 C13.61381171 19.37712185 13.0990708 25.71729116 9.54296875 32.09375 C5.87422168 37.5968706 1.91906017 40.25269261 -4.45703125 42.09375 C-10.40397122 42.99235383 -16.28297807 42.26969321 -21.45703125 39.09375 C-26.4083934 34.59073954 -30.05142307 30.00760559 -30.7578125 23.19140625 C-30.78686859 15.66588005 -30.2192671 11.13929209 -25.01953125 5.40625 C-17.90176008 -1.01710447 -9.45529403 -3.48748524 0 0 Z M-12.20703125 17.34375 C-13.70618559 19.02795967 -13.70618559 19.02795967 -13.20703125 21.21875 C-12.60748654 23.07460115 -12.60748654 23.07460115 -11.45703125 24.09375 C-8.95703125 24.26041667 -8.95703125 24.26041667 -6.45703125 24.09375 C-5.18699802 23.04064723 -5.18699802 23.04064723 -5.26953125 20.65625 C-5.18863142 17.92640325 -5.18863142 17.92640325 -7.45703125 16.09375 C-10.40859473 15.8031309 -10.40859473 15.8031309 -12.20703125 17.34375 Z " fill="#FFFFFF" transform="translate(497.45703125,270.90625)"/>
<path d="M0 0 C5.64341084 3.24268566 9.26127077 7.24692693 11.6875 13.3125 C13.28307538 19.81753811 12.6731149 25.62771957 9.49609375 31.5234375 C6.14121729 36.44148528 2.50482615 39.75602478 -3.3125 41.3125 C-10.69106563 42.26713922 -17.25706962 41.90813913 -23.3125 37.3125 C-28.87646981 32.29499151 -30.94336798 27.37295222 -31.625 19.875 C-31.06759256 13.52055523 -29.00786998 7.76708177 -24.3125 3.3125 C-16.5703184 -1.83001328 -8.73896952 -4.00057892 0 0 Z M-12.3125 16.3125 C-12.99051034 19.21323181 -12.99051034 19.21323181 -13.3125 22.3125 C-12.6525 22.9725 -11.9925 23.6325 -11.3125 24.3125 C-8.70969432 23.99208603 -8.70969432 23.99208603 -6.3125 23.3125 C-5.63291397 20.91530568 -5.63291397 20.91530568 -5.3125 18.3125 C-7.15133881 16.02521266 -7.15133881 16.02521266 -9.9375 16.1875 C-11.113125 16.249375 -11.113125 16.249375 -12.3125 16.3125 Z " fill="#FFFFFF" transform="translate(527.3125,195.6875)"/>
<path d="M0 0 C5.64538374 4.46086126 8.59681353 9.77580236 9.6171875 16.875 C9.97735866 23.6758789 8.43371973 28.00386102 4.0625 33.2578125 C-0.76319944 38.22213167 -5.13054295 40.43942679 -12.0625 40.8828125 C-17.89611374 40.66083329 -22.57711928 38.8733981 -27.25 35.3828125 C-31.63500337 30.38408655 -33.99101441 25.74962511 -34.5 19.1328125 C-33.98746118 11.44473013 -31.00552795 5.53823801 -25.25 0.3828125 C-17.83581899 -4.21397973 -7.58201104 -4.51761491 0 0 Z M-14.25 14.3828125 C-14.91 15.0428125 -15.57 15.7028125 -16.25 16.3828125 C-15.92958603 18.98561818 -15.92958603 18.98561818 -15.25 21.3828125 C-12.85280568 22.06239853 -12.85280568 22.06239853 -10.25 22.3828125 C-9.59 21.7228125 -8.93 21.0628125 -8.25 20.3828125 C-8.57041397 17.78000682 -8.57041397 17.78000682 -9.25 15.3828125 C-11.64719432 14.70322647 -11.64719432 14.70322647 -14.25 14.3828125 Z " fill="#FFFFFF" transform="translate(434.25,272.6171875)"/>
<path d="M0 0 C5.14338337 2.9958329 8.76038445 7.90615335 10.625 13.5 C11.31402405 20.69537976 11.57462875 26.89472105 7.11328125 32.8515625 C2.03272754 38.47884247 -2.9450519 41.42460364 -10.625 41.9375 C-16.27042665 41.76613798 -20.8503535 39.83596818 -25.375 36.5 C-30.33957441 30.76159517 -32.72546859 25.47826005 -32.578125 17.90234375 C-32.05555101 11.72190133 -30.0879968 7.81479331 -25.5 3.625 C-18.39116415 -2.36872434 -8.63247421 -3.75903501 0 0 Z M-12.375 15.5 C-13.035 16.16 -13.695 16.82 -14.375 17.5 C-14.05301034 20.59926819 -14.05301034 20.59926819 -13.375 23.5 C-10.95854218 23.66687448 -10.95854218 23.66687448 -8.375 23.5 C-7.715 22.84 -7.055 22.18 -6.375 21.5 C-6.69541397 18.89719432 -6.69541397 18.89719432 -7.375 16.5 C-9.77219432 15.82041397 -9.77219432 15.82041397 -12.375 15.5 Z " fill="#FFFFFF" transform="translate(301.375,271.5)"/>
<path d="M0 0 C5.06421872 3.29763079 7.58081534 7.33377295 9.75 12.9375 C10.63910826 20.27264315 9.99662384 25.67785528 6 32 C1.83978925 36.62355176 -2.60328681 39.64798531 -8.90234375 40.30078125 C-19.10900864 40.34018922 -19.10900864 40.34018922 -24 37 C-24.86625 36.443125 -25.7325 35.88625 -26.625 35.3125 C-31.78636152 30.28696378 -33.25739584 25.55460691 -33.4375 18.375 C-33.20805832 12.33998859 -32.53201335 8.57585773 -28.1953125 4.1640625 C-19.71751355 -3.67390256 -10.42727173 -5.72477664 0 0 Z M-16 17 C-15.67958603 19.60280568 -15.67958603 19.60280568 -15 22 C-12.60280568 22.67958603 -12.60280568 22.67958603 -10 23 C-7.73160017 21.16734675 -7.73160017 21.16734675 -7.8125 18.4375 C-7.72996677 16.05310277 -7.72996677 16.05310277 -9 15 C-12.961168 14.60909667 -12.961168 14.60909667 -16 17 Z " fill="#FFFFFF" transform="translate(394,197)"/>
</svg>
