<svg xmlns="http://www.w3.org/2000/svg" width="512" height="512"><rect width="512" height="512" fill="#202124"/><path d="M403 0H87Q51 0 51 36V153Q51 189 87 189H356Q369 189 375.50 197.50Q382 206 382 218Q382 235 375.50 243Q369 251 356 252L206 273Q136 284 93.50 319.50Q51 355 51 439V544Q51 630 106 675Q161 720 258 720H538Q574 720 574 684V565Q574 529 538 529H305Q278 529 278 499Q278 470 305 467L454 447Q501 440 536 422.50Q571 405 590.50 371Q610 337 610 281V176Q610 91 555 45.50Q500 0 403 0Z" fill="#FFFFFF" transform="translate(263, 256) scale(0.708,-0.708) translate(-330.5, -360)"/></svg>
