<?xml version="1.0" encoding="UTF-8"?>
<svg version="1.1" xmlns="http://www.w3.org/2000/svg" width="512" height="512" viewBox="0 0 144 144">
  <rect width="144" height="144" fill="#202124"/>
  <path d="M0 0 C1.25124664 -0.01283524 2.50249329 -0.02567047 3.79165649 -0.03889465 C5.1480469 -0.04705864 6.5044418 -0.05450302 7.86083984 -0.0612793 C8.54756145 -0.06535482 9.23428307 -0.06943035 9.94181442 -0.07362938 C13.56976768 -0.09441699 17.19768383 -0.10875571 20.82568359 -0.11816406 C24.57302199 -0.12927408 28.31977402 -0.16374613 32.06690407 -0.20333576 C34.95107141 -0.22943725 37.83509672 -0.23784955 40.7193718 -0.24144554 C42.10131207 -0.24632047 43.48324562 -0.25796036 44.86507034 -0.27648354 C46.79401661 -0.30075483 48.72325011 -0.29750205 50.65234375 -0.29296875 C51.74978912 -0.29883499 52.8472345 -0.30470123 53.97793579 -0.31074524 C56.69677734 0.17700195 56.69677734 0.17700195 58.55128479 2.04426575 C59.99935096 4.74034888 60.06954933 6.62355078 60.06005859 9.67700195 C60.0590918 11.25481445 60.0590918 11.25481445 60.05810547 12.86450195 C60.04199219 13.95762695 60.02587891 15.05075195 60.00927734 16.17700195 C60.0125 17.27012695 60.01572266 18.36325195 60.01904297 19.48950195 C59.95719904 28.66489232 59.95719904 28.66489232 57.69677734 32.17700195 C55.34557807 33.35260159 53.88512157 33.32588477 51.26293945 33.36645508 C49.8865757 33.39153137 49.8865757 33.39153137 48.48240662 33.41711426 C47.48967239 33.4306897 46.49693817 33.44426514 45.47412109 33.45825195 C44.4583046 33.47666138 43.4424881 33.4950708 42.39588928 33.51403809 C38.03592731 33.59292604 33.67580722 33.66060473 29.31567383 33.72924805 C26.13924176 33.78083578 22.96294854 33.83813379 19.78662109 33.89575195 C18.79186264 33.90932739 17.79710419 33.92290283 16.77220154 33.93688965 C15.85777786 33.95360718 14.94335419 33.97032471 14.0012207 33.98754883 C13.19228867 34.0000769 12.38335663 34.01260498 11.5499115 34.0255127 C9.68098118 33.97708352 9.68098118 33.97708352 8.69677734 35.17700195 C8.44672349 38.13517302 8.44672349 38.13517302 8.69677734 41.17700195 C11.4542294 43.93445401 14.30053477 43.87002431 18.01318359 44.32543945 C19.51517174 44.52830533 21.0171237 44.73143924 22.51904297 44.93481445 C24.87921955 45.2443298 27.23982934 45.54953674 29.60131836 45.84887695 C42.14996326 47.45730451 52.89376527 49.31762843 61.69677734 59.17700195 C66.52972634 66.86958514 65.87936424 76.20133657 65.88427734 84.92700195 C65.89652344 86.0562207 65.90876953 87.18543945 65.92138672 88.34887695 C65.94041772 99.31073449 65.36446629 107.93423634 57.69677734 116.17700195 C50.88730072 122.80243866 42.10581335 125.2866887 32.84863281 125.33813477 C32.16851135 125.34309967 31.48838989 125.34806458 30.78765869 125.35317993 C28.54641702 125.36774145 26.30524596 125.37459089 24.06396484 125.38012695 C22.50505573 125.38588017 20.94614663 125.39163788 19.38723755 125.3973999 C16.12404044 125.40789052 12.86086784 125.41374692 9.59765625 125.41723633 C5.4097601 125.42273921 1.22218612 125.44681312 -2.9656086 125.47520828 C-6.18257614 125.49379199 -9.39946508 125.4990378 -12.61648178 125.5005722 C-14.16110891 125.50360528 -15.70573445 125.5116558 -17.25030899 125.52475739 C-19.40508245 125.54174117 -21.55905467 125.53995795 -23.71386719 125.53344727 C-24.94090363 125.5370929 -26.16794006 125.54073853 -27.43215942 125.54449463 C-28.37961029 125.42322205 -29.32706116 125.30194946 -30.30322266 125.17700195 C-33.61971023 120.20227059 -32.7135777 114.52221652 -32.74072266 108.67700195 C-32.77359375 107.42790039 -32.80646484 106.17879883 -32.84033203 104.8918457 C-32.84742187 103.69688477 -32.85451172 102.50192383 -32.86181641 101.27075195 C-32.875271 100.1744043 -32.88872559 99.07805664 -32.90258789 97.94848633 C-32.30322266 95.17700195 -32.30322266 95.17700195 -30.49389648 93.32592773 C-25.60270036 91.56466299 -20.85535054 91.71589076 -15.69384766 91.70043945 C-14.01001984 91.67707016 -14.01001984 91.67707016 -12.29217529 91.65322876 C-8.71253117 91.60574553 -5.13308223 91.57794645 -1.55322266 91.55200195 C2.04078284 91.5155584 5.63467652 91.47501337 9.22857666 91.42935181 C11.46430932 91.40204063 13.70012439 91.38072646 15.93597412 91.36581421 C16.94081848 91.35555206 17.94566284 91.34528992 18.98095703 91.3347168 C19.86966492 91.32822113 20.7583728 91.32172546 21.67401123 91.31503296 C23.69299309 91.3998949 23.69299309 91.3998949 24.69677734 90.17700195 C24.73758517 88.17741832 24.73932091 86.17654941 24.69677734 84.17700195 C21.19872911 82.11664883 17.90675155 81.60260961 13.91162109 81.02856445 C12.56197597 80.8256771 11.21236779 80.62254388 9.86279297 80.41918945 C7.75959945 80.1103476 5.65599123 79.80509703 3.55151367 79.50512695 C-21.01939273 75.97049757 -21.01939273 75.97049757 -28.49072266 66.36450195 C-32.79778063 58.79002068 -32.67575511 51.03690929 -32.67382812 42.58129883 C-32.67818449 40.44571101 -32.7145235 38.31222312 -32.75244141 36.17700195 C-32.83453183 26.29092802 -31.98892863 17.01317222 -25.17822266 9.30200195 C-17.86318705 2.74369417 -9.67061315 0.08662089 0 0 Z" fill="#FFFFFF" transform="translate(56.30322265625,8.822998046875)"/>
</svg>
