<svg xmlns="http://www.w3.org/2000/svg" width="512" height="512"><path fill="#202124" d="M0 0h512v512H0z"/><path d="M245.796 30.698l12.311-.009 29.029-.005 29.869-.028 25.775-.02 15.34-.015 14.386.002 5.262-.009c19.671-.086 19.671-.086 27.108 5.572 4.618 6.112 5.572 12.144 5.529 19.564l.021 2.531.009 8.213.016 5.753-.003 12.031.038 15.366.012 11.873.018 5.663c.111 19.555.111 19.555-4.515 25.819-8.106 7.352-19.711 6.287-29.956 6.255l-4.492.011-9.625.008c-5.077-.003-10.154.012-15.231.029l-43.294.077-23.948.055-15.13.012c-3.139-.003-6.279.011-9.418.03a445.48 445.48 0 0 1-4.355-.005c-10.51-.159-10.51-.159-19.552 4.527-3.66 5.002-4.134 10.941-4 17 1.021 5.919 3.035 10.408 8 14 8.409 3.616 17.91 4.265 26.898 5.417l8.602 1.126 15.22 1.993 24.233 3.176 8.355 1.083c32.889 4.294 32.889 4.294 47.505 9.456l2.599.895c21.853 7.764 42.765 20.579 53.776 41.668 4.13 8.732 6.841 17.378 8.5 26.875l.362 2.028c2.764 17.291 2.138 35.046 2.136 52.502l.021 8.783c.18 39.238-1.11 74.664-29.393 104.687C397.784 450.515 391.26 454.883 384 459l-1.863 1.066c-25.596 14.388-53.742 17.074-82.546 17.111l-6.498.02-21.23.041-7.328.012-34.4.042-39.667.077-30.707.048-18.324.036-17.22.017a934.54 934.54 0 0 0-6.313.02 804.12 804.12 0 0 1-8.628-.003l-2.512.033c-5.709-.063-9.962-1.397-14.766-4.521-1.84-1.895-1.84-1.895-2.937-3.812l-1.152-1.895c-2.153-5.424-2.059-11.342-2.055-17.105l-.01-2.265-.013-7.353-.01-5.152-.007-10.778-.031-13.755-.013-10.635-.013-5.069C85.661 371.989 85.661 371.989 92 365c7.803-5.473 17.286-4.554 26.358-4.498l5.265-.017 11.295-.001 17.864-.016 34.683-.03 44.18-.049 17.755-.003 11.04-.014 5.116.009 6.988-.009 3.948.002c3.847-.41 6.234-1.343 9.509-3.374 5.038-6.399 5.64-12.066 5-20-1.236-6.172-3.148-9.832-8-14-3.388-1.159-3.388-1.159-7.178-1.655l-2.114-.345-6.708-1-2.175-.322-13.538-1.88-7.561-1.013-21.464-2.873c-91.3-12.148-91.3-12.148-119.45-44.475-19.507-25.496-17.158-61.239-17.073-91.56l-.007-12.35c-.089-37.632 1.1-72.029 28.451-100.708 15.701-15.723 35.671-24.85 57.129-29.695l2.503-.579c23.556-4.859 48.066-3.86 71.98-3.848z" fill="#fff"/></svg>