<svg xmlns="http://www.w3.org/2000/svg" width="768" height="512" fill="#fff"><path d="M60.661 95.746l3.452-.01 11.445.003 8.291-.012 18.023-.006 26.802-.009 50.654-.014 39.115-.004 5.62-.002 8.469-.003 78.738-.009h2.998l15.043.003 3.018.001 6.042.001 94.017-.021 105.636-.027 11.263.001h2.801l41.865-.016 47.611-.001 26.641-.009 17.803.006 10.138-.004 10.939.011 3.153-.022c15.867.117 30.427 5.46 41.759 16.647 5.204 5.388 8.982 10.867 12 17.75l1.095 2.38c4.086 10.282 3.467 20.829 3.423 31.706l.021 6.681-.002 18.062.006 18.952-.025 33.858.004 30.628.018 35.659.006 18.842-.02 17.722.005 6.481c.074 19.898-3.037 34.73-17.124 49.709-9.428 9.091-22.037 15.44-35.329 15.448l-2.948.009-3.222-.005-3.45.006-9.509.003a5932.01 5932.01 0 0 0-10.334.009l-20.51.01-24.562.014-59.37.027-28.083.01-96.123.027h-6.035l-6.049.001-12.136.001h-3.04l-97.573.043-103.148.04-11.323.001h-2.816l-44.872.027-45.102.01c-8.931-.004-17.863-.001-26.794.015a5343.14 5343.14 0 0 1-17.905-.001 2120.66 2120.66 0 0 0-10.197.007c-3.668.011-7.335.004-11.003-.008l-3.172.023c-16.288-.115-30.485-5.828-42.035-17.344C.668 384.066-.598 367.398-.518 347.893l-.021-6.652.002-17.969-.006-18.86.025-33.688-.004-30.473-.018-35.487-.006-18.748.02-17.631-.005-6.447C-.609 141.077 3.008 126.28 18 111l1.645-1.719c11.347-10.801 25.94-13.599 41.016-13.535zM29.187 131.25c-1.692 2.063-1.692 2.063-3.187 4.75l-1.014 1.711c-4.541 9.208-3.546 19.441-3.504 29.445l-.021 6.453.002 17.467-.006 18.314.021 30.754-.007 35.507-.01 30.533-.006 18.215.02 17.131-.005 6.27c-.057 14.702.436 25.956 11.163 37.035 8.74 7.99 17.098 9.466 28.63 9.421l3.432.011h11.432l8.261.014 17.985.011 26.745.016 50.545.026 39.031.011 11.232.005 2.82.001 78.548.019h2.992 15.013 3.012 6.03l93.815.041 105.381.046h11.236 2.794l44.532.03 44.751.006 26.588.016 17.764-.005 10.119.007 10.913-.013 3.154.03c11.125-.108 19.463-3.438 27.448-11.157 6.996-7.666 9.471-15.164 9.425-25.429l.012-2.733.002-9.05.015-6.496.011-17.634.009-14.724.005-34.739.028-35.831.02-30.77.015-18.374-.002-17.281.009-6.337-.01-8.661.022-2.523c-.092-9.973-4.351-18.211-10.99-25.551-9.131-8.55-20.513-9.39-32.418-9.37l-3.387-.006-11.298-.003-8.157-.009-20.107-.01-24.082-.014-58.205-.027-27.534-.01-94.249-.027h-5.916l-5.931-.001-11.898-.001h-2.98l-95.662-.043-101.136-.04-11.102-.001h-2.761l-43.993-.027-44.217-.01c-8.756.004-17.512.001-26.267-.015a5198.87 5198.87 0 0 0-17.554.001 2081.67 2081.67 0 0 1-9.996-.007c-3.596-.011-7.191-.004-10.787.008l-3.108-.023c-13.294.096-24.749 3.185-33.472 13.645zm206.317 9.242l4.252-.019 11.575.004 12.526-.016 24.493-.002 19.914.006 2.869-.002 5.771-.004 54.039.023 46.32-.004 53.858-.018 5.748.004 2.856.002 19.881-.012 24.242.013 12.357.001 11.33.016 5.999-.02c15.82.136 28.632 6.146 40.075 16.941 9.747 10.575 14.622 23.655 14.51 37.996-.225 4.876-1 9.668-1.74 14.488l-.522 3.507-1.724 11.422-1.196 7.992-2.84 18.879-4.146 27.577-.616 4.105-.304 2.028-2.06 13.681-1.092 7.249-.519 3.439c-1.062 7.085-2.034 14.172-2.848 21.289-1.542 8.852-5.816 16.152-11.512 22.939l-2.187 3c-8.356 9.704-20.387 14.879-32.812 17-1.803.086-3.609.122-5.415.12l-3.261.004-3.551-.011-3.765-.001-10.255-.017-8.722-.014-98.281-.501-7.014-.052-42.821-.324-46.465-.323-27.459-.188-15.345-.097-14.015-.099-4.996-.025c-17.85-.039-32.079-3.464-45.35-16.062-3.65-3.849-6.607-7.834-9.285-12.41l-1.434-2.422c-3.384-6.788-4.221-13.511-5.038-20.975l-.382-3.333L188 307l-.686-6.128-2.013-18.466-.359-3.343-1.867-17.449-1.539-14.271-1.878-17.476-.712-6.573c-4.869-44.455-4.869-44.455 9.055-62.294 12.763-15.03 28.103-20.642 47.504-20.508zm-32.903 30.5c-6.783 8.504-9.27 18.742-8.195 29.448l.31 2.637.299 2.864.649 6.013.935 8.981 1.931 18.831.355 3.411 1.855 17.794 1.896 18.276 1.477 14.181.698 6.741.982 9.406.28 2.762c1.474 13.804 4.257 25.55 15.487 34.726 17.447 12.376 43.864 8.134 64.339 8.241l12.363.077 29.414.168 11.034.06 61.472.305 36.037.181 41.835.181 19.904.084 18.441.06 6.65.034c14.032.113 25.673-.047 36.946-9.465 7.455-7.397 11.103-16.344 12.406-26.578l.359-2.608.772-5.705 2.217-16.167.505-3.65 4.456-30.194 1.238-8.112 3.321-21.669 1.979-12.921.741-4.793c3.299-20.859 3.299-20.859-3.686-40.291-6.762-9.157-15.302-13.895-26.305-16.301-4.583-.414-9.14-.405-13.739-.381l-4.113-.014c-3.743-.012-7.487-.006-11.23.003-4.046.007-8.093-.004-12.139-.012l-23.753-.002-19.31.004-2.779-.001-5.59-.003c-17.46-.009-34.921.001-52.381.017-14.972.013-29.943.011-44.915-.003l-52.198-.013-5.569.003-2.768.001c-6.426.003-12.853-.002-19.279-.009a7673.41 7673.41 0 0 0-23.505.01l-11.985.001a1608.58 1608.58 0 0 0-10.984.012c-1.943.005-3.885-.005-5.828-.015-13.339.089-24.026 3.578-33.332 13.393zm-83.648 43.235C129.941 223.684 137.059 235.531 139 250c1.06 16.647-2.356 30.584-13.375 43.313-9.585 10.097-21.685 17.26-35.887 18.023-17.213.349-30.775-4.143-43.445-16.008-10.509-10.67-15.529-23.32-15.668-38.328.183-15.836 5.799-28.078 16.672-39.488 19.869-18.462 50.085-19.549 71.656-3.285zM57 233c-5.653 7.584-8.396 14.892-8.375 24.313l.005 2.281c.13 5.89 1.188 10.38 4.37 15.407l1.75 3.125C60.432 285.386 67.29 290.097 76 293c13.535.737 23.013-.316 34-9 7.069-6.677 10.998-14.725 11.343-24.432.163-10.645-2.028-20.083-9.621-28.045-9.154-8.096-18.044-11.191-30.23-10.863-9.847.958-17.609 5.3-24.492 12.34zm661-22c3.554 2.795 6.799 5.81 10 9l1.973 1.902c9.163 9.526 12.963 22.008 13.055 34.984-.326 12.526-3.278 23.142-11.027 33.113l-1.59 2.086C722.19 302.182 710.039 309.512 697 311c-16.236.913-30.545-1.217-43.187-12.312L649 294l-2.008-1.973c-10.663-11.24-12.607-25.208-12.301-40.035.662-14.569 7.696-26.23 18.141-36.062L655 214l1.637-1.492C673.226 199.053 700.621 199.794 718 211zm-45 13l-2.23 1.254c-9.127 5.611-14.654 12.477-17.77 22.746-2.323 10.108-.944 19.838 4.406 28.734 6.48 9.212 14.066 14.151 24.973 16.855 11.398 1.815 21.507-2.514 30.809-8.715 7.211-6.513 11.217-15.158 12.059-24.648.453-10.691-2.699-19.931-9.809-28-6.487-6.864-13.521-10.743-23.121-11.527-10.063-.111-10.063-.111-19.316 3.301zm-341-27c5.287 3.629 8.686 7.671 10 14 .71 6.847.139 12.36-4 18-4.256 4.539-8.507 7.537-14.797 8.371-7.246.163-12.502-.696-18.203-5.371-5.383-5.899-6.367-11.172-6.273-18.926.556-6.256 3.121-10.28 7.711-14.449 7.829-6.078 16.843-6.488 25.563-1.625zm-16 17c.32 2.603.32 2.603 1 5 2.397.68 2.397.68 5 1 2.268-1.833 2.268-1.833 2.188-4.562.083-2.384.083-2.384-1.187-3.437-3.961-.391-3.961-.391-7 2zm-53.75-18.062c5.239 2.937 8.37 6.558 10.75 12.063 1.861 6.737 1.168 12.791-2 19-2.758 4.291-5.95 7.811-10.887 9.563-7.063 1.462-14.111 1.415-20.43-2.289-4.44-3.358-7.799-7.853-9.203-13.281-1.013-7.321.505-13.365 4.082-19.805 8.213-7.37 17.459-9.645 27.688-5.25zM250 212l-2 2c.32 2.603.32 2.603 1 5 1.847.692 1.847.692 4 1l3-2-1-5c-2.397-.68-2.397-.68-5-1zm112.5 59.188c5.005 3.628 9.519 7.869 11.5 13.813.671 7.421.638 13.906-4 20-4.959 5.379-9.903 7.935-17.25 8.438-6.469-.185-12.158-2.788-16.68-7.41-4.942-6.326-5.909-12.073-5.07-20.027 2.046-7 6.791-11.354 12.82-15.145 5.685-2.231 13.009-1.592 18.68.332zM351 287c-2.268 1.833-2.268 1.833-2.187 4.563-.083 2.384-.083 2.384 1.188 3.438 2.458.25 2.458.25 5 0l2-2c-.32-2.603-.32-2.603-1-5-2.397-.68-2.397-.68-5-1zm111.113-91.18c5.263 3.291 9 8.314 10.887 14.18.908 7.062.333 13.21-4 19-4.277 4.551-8.53 7.593-14.867 8.336-6.387.083-11.215-.007-16.133-4.336-5.675-5.573-8.095-9.248-8.312-17.25.085-6.392 1.561-10.823 5.961-15.504 7.587-6.874 16.87-8.513 26.465-4.426zM447 214c.367 2.935.864 3.864 3 6 2.057-.014 2.057-.014 4-1 1.284-1.984 1.284-1.984 2-4l-2-3c-3.458-.432-4.48-.52-7 2zm50.457 56.906c5.185 3.093 8.818 7.137 11.855 12.344 1.758 7.033 1.244 13.374-2.312 19.75-3.669 5.503-7.624 8.159-14 10-5.947.899-11.826.176-17-3-4.951-4.503-8.594-9.086-9.301-15.902-.029-7.526.539-12.052 5.738-17.785 7.118-6.423 15.564-8.894 25.02-5.406zM485.25 288.25c-1.499 1.684-1.499 1.684-1 3.875.6 1.856.6 1.856 1.75 2.875 2.5.167 2.5.167 5 0 1.27-1.053 1.27-1.053 1.188-3.437.081-2.73.081-2.73-2.187-4.562-2.952-.291-2.952-.291-4.75 1.25zm42.063-92.562c5.643 3.243 9.261 7.247 11.688 13.313 1.596 6.505.986 12.315-2.191 18.211-3.355 4.918-6.991 8.233-12.809 9.789-7.379.955-13.945.596-20-4-5.564-5.018-7.631-9.94-8.312-17.437.557-6.354 2.617-12.108 7.313-16.562 7.742-5.143 15.574-7.313 24.313-3.312zM515 212c-.678 2.901-.678 2.901-1 6l2 2c2.603-.32 2.603-.32 5-1 .68-2.397.68-2.397 1-5-1.839-2.287-1.839-2.287-4.625-2.125L515 212zm-80.75 60.617c5.645 4.461 8.597 9.776 9.617 16.875.36 6.801-1.183 11.129-5.555 16.383-4.826 4.964-9.193 7.182-16.125 7.625-5.834-.222-10.515-2.009-15.187-5.5-4.385-4.999-6.741-9.633-7.25-16.25.513-7.688 3.494-13.595 9.25-18.75 7.414-4.597 17.668-4.9 25.25-.383zM420 287l-2 2c.32 2.603.32 2.603 1 5 2.397.68 2.397.68 5 1l2-2c-.32-2.603-.32-2.603-1-5-2.397-.68-2.397-.68-5-1zm-118.625-15.5c5.143 2.996 8.76 7.906 10.625 13.5.689 7.195.95 13.395-3.512 19.352-5.081 5.627-10.058 8.573-17.738 9.086-5.645-.171-10.225-2.102-14.75-5.437-4.965-5.738-7.35-11.022-7.203-18.598.523-6.18 2.49-10.088 7.078-14.277 7.109-5.994 16.868-7.384 25.5-3.625zM289 287l-2 2c.322 3.099.322 3.099 1 6 2.416.167 2.416.167 5 0l2-2c-.32-2.603-.32-2.603-1-5-2.397-.68-2.397-.68-5-1zm105-90c5.064 3.298 7.581 7.334 9.75 12.938.889 7.335.247 12.74-3.75 19.063-4.16 4.624-8.603 7.648-14.902 8.301-10.207.039-10.207.039-15.098-3.301l-2.625-1.687c-5.161-5.026-6.632-9.758-6.812-16.937.229-6.035.905-9.799 5.242-14.211 8.478-7.838 17.768-9.889 28.195-4.164zm-16 17c.32 2.603.32 2.603 1 5 2.397.68 2.397.68 5 1 2.268-1.833 2.268-1.833 2.188-4.562.083-2.384.083-2.384-1.187-3.437-3.961-.391-3.961-.391-7 2z"/></svg>